#!OML:ASF H:\Terrain\Patient Classification 1\Terrain2\Thursday\justin.ASF
:FULLY-SPECIFIED
:DEGREES
2522
root 21.8945 24.2699 21.2555 506.576 -85.6318 -140.816
lowerback 11.85 -0.255357 -2.86442
upperback 2.90534 -0.729128 1.63472
thorax -3.54326 -0.389248 3.43479
lowerneck -13.9397 -0.911703 -8.46544
upperneck 38.4946 -3.2017 6.50256
head 16.3567 -2.2693 3.66042
rclavicle 8.99501e-015 -1.78906e-015
rhumerus -30.403 -7.35925 -81.3626
rradius 39.3548
rwrist -12.5616
rhand -20.4238 13.0147
rfingers 7.12502
rthumb 5.93068 -16.8823
lclavicle 8.99501e-015 -1.78906e-015
lhumerus -27.3231 1.41894 83.378
lradius 38.3176
lwrist 9.16968
lhand -20.1308 21.5936
lfingers 7.12502
lthumb 6.21351 -308.518
rfemur -26.4569 2.92917 23.7215
rtibia 38.4566
rfoot -21.3924 4.76547
rtoes -3.16231
lfemur -12.5797 3.27335 -17.9018
ltibia 24.0864
lfoot -13.712 -17.5517
ltoes 13.0464
2523
root 21.8383 24.2641 21.2397 504.533 -85.6194 -138.913
lowerback 11.8161 -0.343011 -2.89512
upperback 2.95107 -0.841988 1.86471
thorax -3.46351 -0.448611 3.70887
lowerneck -14.0399 -0.845326 -8.99534
upperneck 38.7291 -2.9875 6.58597
head 16.494 -2.25928 3.84101
rclavicle 5.66536e-015 -1.10325e-014
rhumerus -30.4358 -7.20467 -81.1306
rradius 38.5447
rwrist -12.1005
rhand -20.1728 13.0437
rfingers 7.12502
rthumb 6.17304 -16.8464
lclavicle 5.66536e-015 -1.10325e-014
lhumerus -27.4681 1.66366 83.6381
lradius 38.3227
lwrist 9.18412
lhand -19.8643 21.791
lfingers 7.12502
lthumb 6.47078 -308.328
rfemur -26.1989 3.07378 23.9605
rtibia 38.0082
rfoot -21.3184 4.29345
rtoes -4.45369
lfemur -12.1672 3.06547 -17.6915
ltibia 24.0499
lfoot -14.3974 -17.2387
ltoes 11.4348
2524
root 21.7818 24.2586 21.2295 504.917 -85.6754 -139.37
lowerback 11.7515 -0.361742 -3.0096
upperback 2.93329 -0.874163 1.97367
thorax -3.44018 -0.463859 3.89199
lowerneck -14.0699 -0.881157 -9.38203
upperneck 38.9405 -3.01776 6.74539
head 16.6304 -2.32174 3.98667
rclavicle 1.71452e-015 5.96354e-015
rhumerus -30.7204 -7.39857 -80.8682
rradius 37.9629
rwrist -11.7175
rhand -19.9073 13.0515
rfingers 7.12502
rthumb 6.42926 -16.8309
lclavicle 1.71452e-015 5.96354e-015
lhumerus -27.6502 1.75255 83.9177
lradius 38.288
lwrist 9.09736
lhand -20.2618 22.165
lfingers 7.12502
lthumb 6.08707 -307.942
rfemur -26.0729 3.09649 23.9294
rtibia 37.6479
rfoot -20.9732 4.51686
rtoes -5.0685
lfemur -11.8283 2.83937 -17.7235
ltibia 24.0015
lfoot -14.5627 -17.0526
ltoes 11.3431
2525
root 21.7268 24.258 21.223 506.272 -85.8009 -140.77
lowerback 11.6822 -0.343061 -2.96388
upperback 2.88974 -0.844935 1.81802
thorax -3.45354 -0.447136 3.69724
lowerneck -13.8717 -0.883734 -8.90815
upperneck 38.9955 -3.11009 6.47507
head 16.6052 -2.3342 3.76076
rclavicle 5.11871e-015 -2.65378e-014
rhumerus -30.8885 -7.65782 -80.8584
rradius 37.1575
rwrist -11.7513
rhand -19.8599 12.6045
rfingers 7.12502
rthumb 6.47509 -17.2765
lclavicle 5.11871e-015 -2.65378e-014
lhumerus -27.7837 1.46182 83.9206
lradius 38.1112
lwrist 8.90652
lhand -20.9832 22.4028
lfingers 7.12502
lthumb 5.39053 -307.686
rfemur -25.9898 2.78431 23.8487
rtibia 37.36
rfoot -20.3119 4.95945
rtoes -3.88655
lfemur -11.5631 2.59411 -17.8838
ltibia 23.9927
lfoot -14.4888 -17.045
ltoes 12.4779
2526
root 21.6711 24.2512 21.2084 505.578 -85.7195 -140.169
lowerback 11.705 -0.135873 -2.61106
upperback 2.84748 -0.535206 1.60276
thorax -3.54255 -0.29263 3.2276
lowerneck -13.6194 -0.994481 -8.20262
upperneck 38.9645 -3.42887 6.21236
head 16.5405 -2.39834 3.45484
rclavicle 7.60351e-015 -3.37934e-015
rhumerus -31.0352 -8.51955 -80.7953
rradius 36.2299
rwrist -11.7382
rhand -19.8992 12.0795
rfingers 7.12502
rthumb 6.43708 -17.8027
lclavicle 7.60351e-015 -3.37934e-015
lhumerus -27.7936 0.622302 83.8787
lradius 37.8689
lwrist 8.59211
lhand -21.4269 22.3819
lfingers 7.12502
lthumb 4.96212 -307.696
rfemur -25.8145 2.32056 24.1703
rtibia 37.1401
rfoot -19.6022 4.99743
rtoes -3.83754
lfemur -11.2526 2.80759 -17.7321
ltibia 23.9926
lfoot -14.7662 -17.2049
ltoes 11.8269
2527
root 21.6119 24.2387 21.1924 504.552 -85.5465 -139.19
lowerback 11.6171 0.0470277 -2.23457
upperback 2.81313 -0.249883 1.4631
thorax -3.55417 -0.152402 2.82587
lowerneck -13.5262 -1.1315 -8.07342
upperneck 38.9773 -3.76943 6.39843
head 16.5644 -2.49775 3.456
rclavicle 1.16289e-014 -2.8625e-014
rhumerus -31.3694 -9.46272 -80.7105
rradius 35.5822
rwrist -11.4722
rhand -20.1381 11.9904
rfingers 7.12502
rthumb 6.20647 -17.8987
lclavicle 1.16289e-014 -2.8625e-014
lhumerus -27.8311 -0.00727207 83.8451
lradius 37.6899
lwrist 8.3205
lhand -21.3514 21.9519
lfingers 7.12502
lthumb 5.03502 -308.128
rfemur -25.6412 1.94568 24.5501
rtibia 36.9533
rfoot -18.8849 5.07748
rtoes -3.82845
lfemur -10.9873 3.2182 -17.4936
ltibia 24.0146
lfoot -15.3115 -17.2868
ltoes 9.84963
2528
root 21.5518 24.2354 21.18 503.478 -85.488 -138.134
lowerback 11.3898 -0.16761 -2.26997
upperback 2.83576 -0.527155 1.65405
thorax -3.38513 -0.292534 3.08197
lowerneck -13.5395 -0.938569 -8.43139
upperneck 38.9987 -3.35243 6.37267
head 16.5383 -2.38561 3.58263
rclavicle -2.03754e-015 4.57205e-015
rhumerus -31.3934 -8.97495 -80.7038
rradius 34.9044
rwrist -11.1212
rhand -20.1416 12.0455
rfingers 7.12502
rthumb 6.20314 -17.8437
lclavicle -2.03754e-015 4.57205e-015
lhumerus -28.142 0.702084 83.8646
lradius 37.6832
lwrist 8.12167
lhand -21.1757 21.5324
lfingers 7.12502
lthumb 5.20468 -308.552
rfemur -25.4131 1.83976 24.7753
rtibia 36.7924
rfoot -18.1666 4.84491
rtoes -2.92797
lfemur -10.7395 3.08059 -17.338
ltibia 24.0823
lfoot -15.6935 -17.0917
ltoes 9.44499
2529
root 21.4917 24.2369 21.165 502.871 -85.4493 -137.551
lowerback 11.1746 -0.279685 -2.27858
upperback 2.89398 -0.670241 1.7715
thorax -3.19449 -0.368024 3.22532
lowerneck -13.6325 -0.820546 -8.47404
upperneck 39.0691 -3.08805 6.20453
head 16.5661 -2.30698 3.56307
rclavicle 2.57426e-014 6.55989e-015
rhumerus -31.1758 -9.26422 -80.4886
rradius 33.9125
rwrist -10.0654
rhand -19.4055 12.1032
rfingers 7.12502
rthumb 6.91374 -17.7639
lclavicle 2.57426e-014 6.55989e-015
lhumerus -28.2899 1.05152 83.9628
lradius 37.5885
lwrist 7.91647
lhand -21.5857 22.0514
lfingers 7.12502
lthumb 4.80883 -308.023
rfemur -25.1278 1.8924 24.9779
rtibia 36.6512
rfoot -17.3344 4.16998
rtoes -2.00281
lfemur -10.469 2.85702 -17.2102
ltibia 24.1653
lfoot -15.9472 -16.9355
ltoes 10.0722
2530
root 21.4281 24.2261 21.1489 503.64 -85.4669 -138.339
lowerback 11.0146 -0.0237669 -1.9887
upperback 2.90719 -0.303054 1.52387
thorax -3.12256 -0.187402 2.75018
lowerneck -13.7474 -1.10862 -8.18896
upperneck 39.2121 -3.69272 6.35795
head 16.7405 -2.49568 3.48064
rclavicle 3.67752e-015 -2.40529e-014
rhumerus -31.3002 -10.8614 -80.1905
rradius 33.0728
rwrist -9.21216
rhand -19.1005 11.9664
rfingers 7.12502
rthumb 7.20818 -17.8908
lclavicle 3.67752e-015 -2.40529e-014
lhumerus -28.1624 -0.00222416 84.0358
lradius 37.3041
lwrist 7.82638
lhand -21.6099 22.6019
lfingers 7.12502
lthumb 4.78545 -307.472
rfemur -24.89 1.58252 25.1099
rtibia 36.5425
rfoot -16.2765 3.8591
rtoes -0.992901
lfemur -10.2337 3.15286 -17.2398
ltibia 24.2294
lfoot -15.3205 -17.8554
ltoes 14.8758
2531
root 21.3607 24.2112 21.1315 502.986 -85.4624 -137.767
lowerback 10.9197 0.159088 -1.82096
upperback 2.85259 -0.0392685 1.48359
thorax -3.14388 -0.055142 2.57726
lowerneck -13.5957 -1.34604 -8.13962
upperneck 39.2771 -4.15319 6.46296
head 16.7939 -2.67089 3.43927
rclavicle 1.89342e-014 -1.82882e-014
rhumerus -31.7095 -11.3438 -80.0089
rradius 32.5614
rwrist -9.37666
rhand -19.5224 11.6027
rfingers 7.12502
rthumb 6.80086 -18.2681
lclavicle 1.89342e-014 -1.82882e-014
lhumerus -28.3788 -0.689068 84.1866
lradius 37.1879
lwrist 7.76904
lhand -21.2844 22.557
lfingers 7.12502
lthumb 5.09974 -307.524
rfemur -24.566 1.13183 25.3486
rtibia 36.4563
rfoot -15.2465 3.62066
rtoes -0.58154
lfemur -9.96095 3.56718 -17.1519
ltibia 24.32
lfoot -15.841 -17.7993
ltoes 13.1081
2532
root 21.2923 24.2036 21.113 501.084 -85.3558 -135.97
lowerback 10.7557 -0.00587306 -1.90177
upperback 2.82008 -0.252185 1.8326
thorax -3.07281 -0.161171 3.01444
lowerneck -13.3461 -1.14657 -8.54906
upperneck 39.2988 -3.6947 6.31302
head 16.6948 -2.57385 3.52581
rclavicle -2.93207e-015 -5.26779e-015
rhumerus -31.8823 -10.6131 -79.7954
rradius 31.953
rwrist -9.44119
rhand -19.3059 11.6279
rfingers 7.12502
rthumb 7.0099 -18.236
lclavicle -2.93207e-015 -5.26779e-015
lhumerus -28.9213 0.181711 84.3653
lradius 37.2174
lwrist 7.59641
lhand -21.3069 22.6374
lfingers 7.12502
lthumb 5.07799 -307.443
rfemur -24.1595 0.63188 25.7318
rtibia 36.3728
rfoot -14.6023 3.6018
rtoes 0.373223
lfemur -9.61373 3.57079 -16.8818
ltibia 24.4139
lfoot -15.6738 -18.0924
ltoes 15.1405
2533
root 21.2268 24.1876 21.0993 500.398 -85.3406 -135.313
lowerback 10.5348 -0.124297 -1.79998
upperback 2.81495 -0.391497 1.94091
thorax -2.9472 -0.232329 3.0853
lowerneck -13.324 -0.94222 -8.78843
upperneck 39.4082 -3.32736 6.32066
head 16.7098 -2.46553 3.64051
rclavicle 2.48481e-017 -1.19768e-014
rhumerus -31.9786 -10.7165 -79.5318
rradius 31.2656
rwrist -8.95459
rhand -18.9561 11.7635
rfingers 7.12502
rthumb 7.34756 -18.0889
lclavicle 2.48481e-017 -1.19768e-014
lhumerus -29.2236 0.56102 84.4319
lradius 37.0981
lwrist 7.54286
lhand -21.4853 22.6229
lfingers 7.12502
lthumb 4.9058 -307.454
rfemur -23.8494 0.120711 25.9333
rtibia 36.2515
rfoot -14.2084 4.13077
rtoes 4.43543
lfemur -9.36703 3.58039 -16.7958
ltibia 24.4698
lfoot -15.6321 -18.3019
ltoes 16.3413
2534
root 21.1634 24.1746 21.0859 501.048 -85.4628 -135.996
lowerback 10.3653 -0.0572993 -1.78554
upperback 2.81305 -0.298854 1.90202
thorax -2.86234 -0.186685 3.02261
lowerneck -13.3958 -0.969981 -8.79038
upperneck 39.5268 -3.40962 6.40175
head 16.8046 -2.49284 3.66847
rclavicle -2.8948e-015 -2.15681e-014
rhumerus -32.1894 -11.5663 -79.1439
rradius 30.6221
rwrist -8.23601
rhand -18.8624 11.5478
rfingers 7.12502
rthumb 7.43799 -18.3015
lclavicle -2.8948e-015 -2.15681e-014
lhumerus -29.3342 0.241229 84.5732
lradius 36.8335
lwrist 7.50232
lhand -21.61 22.219
lfingers 7.12502
lthumb 4.78536 -307.855
rfemur -23.5468 -0.109897 25.9107
rtibia 36.0934
rfoot -13.9612 4.74547
rtoes 9.41132
lfemur -9.12499 3.58093 -16.9025
ltibia 24.5024
lfoot -15.866 -18.2031
ltoes 15.6162
2535
root 21.0964 24.1789 21.068 502.695 -85.5974 -137.801
lowerback 10.3451 0.0568186 -1.91441
upperback 2.78209 -0.159627 1.86742
thorax -2.89214 -0.115343 3.04195
lowerneck -13.2945 -1.04788 -8.69772
upperneck 39.5924 -3.59122 6.41221
head 16.8349 -2.55829 3.62612
rclavicle 1.31695e-015 -2.18663e-015
rhumerus -32.399 -12.3707 -78.6838
rradius 29.8464
rwrist -7.799
rhand -18.55 11.5592
rfingers 7.12502
rthumb 7.73951 -18.2792
lclavicle 1.31695e-015 -2.18663e-015
lhumerus -29.5653 -0.136984 84.7539
lradius 36.6414
lwrist 7.62283
lhand -21.24 22.1903
lfingers 7.12502
lthumb 5.14257 -307.892
rfemur -23.0929 -0.221855 25.8086
rtibia 35.9705
rfoot -14.0755 5.38903
rtoes 12.3612
lfemur -8.62936 2.95741 -17.0329
ltibia 24.525
lfoot -16.0257 -17.8195
ltoes 16.3349
